<?xml version="1.0" standalone="no"?><!DOCTYPE svg PUBLIC "-//W3C//DTD SVG 1.1//EN" "http://www.w3.org/Graphics/SVG/1.1/DTD/svg11.dtd"><svg t="1543067154196" class="icon" style="" viewBox="0 0 1024 1024" version="1.1" xmlns="http://www.w3.org/2000/svg" p-id="2141" xmlns:xlink="http://www.w3.org/1999/xlink" width="500" height="500"><defs><style type="text/css"></style></defs><path d="M176 1024h672c26.464 0 48-21.536 48-48v-672c0-0.544-0.256-0.992-0.288-1.504-0.064-0.736-0.256-1.376-0.416-2.08a15.616 15.616 0 0 0-2.88-6.112c-0.224-0.288-0.192-0.64-0.416-0.928l-256-288c-0.096-0.096-0.224-0.096-0.32-0.192a15.808 15.808 0 0 0-7.136-4.288c-0.608-0.192-1.152-0.256-1.792-0.352C625.824 0.384 624.96 0 624 0h-448C149.536 0 128 21.536 128 48v928c0 26.464 21.536 48 48 48zM640 58.08L844.384 288H656c-7.04 0-16-13.44-16-24V58.08zM160 48a16 16 0 0 1 16-16H608v232c0 25.888 20.96 56 48 56H864v656a16 16 0 0 1-16 16h-672c-8.96 0-16-7.04-16-16v-928z" fill="#828282" p-id="2142"></path><path d="M304 448h416a16 16 0 0 0 0-32h-416a16 16 0 0 0 0 32zM304 576h416a16 16 0 0 0 0-32h-416a16 16 0 0 0 0 32zM304 320h192a16 16 0 0 0 0-32h-192a16 16 0 0 0 0 32zM304 704h416a16 16 0 0 0 0-32h-416a16 16 0 0 0 0 32zM304 832h416a16 16 0 0 0 0-32h-416a16 16 0 0 0 0 32z" fill="#828282" p-id="2143"></path></svg>